PathFileType	4	(X/Y/Z)	/Users/itak/Documents/Research/Walk-IL/dataset/trc/00581_00009.trc
DataRate	CameraRate	NumFrames	NumMarkers	Units	OrigDataRate	OrigDataStartFrame	OrigNumFrames
100.000000	100.000000	4	53	mm	100.000000	262	525
Frame#	Time	RPSI			LPSI			L3			STRN			T10			C7			CLAV			RBAK			LBAK			LSHO			LUPA			LAEL			LAOL			LWTS			LWPS			LFRA			LIFD			LHPS			LHTS			RSHO			RUPA			RAEL			RAOL			RWTS			RWPS			RFRA			RIFD			RHPS			RBHD			RFHD			LBHD			LHIP			RHIP			RASI			LASI			LKNE			LTHI			LANK			LTIP			LTOE			LMT1			LMT5			LHEE			RKNE			RTHI			RANK			RTIP			RTOE			RMT1			RMT5			RHEE			RHTS			LFHD			
		X1	Y1	Z1	X2	Y2	Z2	X3	Y3	Z3	X4	Y4	Z4	X5	Y5	Z5	X6	Y6	Z6	X7	Y7	Z7	X8	Y8	Z8	X9	Y9	Z9	X10	Y10	Z10	X11	Y11	Z11	X12	Y12	Z12	X13	Y13	Z13	X14	Y14	Z14	X15	Y15	Z15	X16	Y16	Z16	X17	Y17	Z17	X18	Y18	Z18	X19	Y19	Z19	X20	Y20	Z20	X21	Y21	Z21	X22	Y22	Z22	X23	Y23	Z23	X24	Y24	Z24	X25	Y25	Z25	X26	Y26	Z26	X27	Y27	Z27	X28	Y28	Z28	X29	Y29	Z29	X30	Y30	Z30	X31	Y31	Z31	X32	Y32	Z32	X33	Y33	Z33	X34	Y34	Z34	X35	Y35	Z35	X36	Y36	Z36	X37	Y37	Z37	X38	Y38	Z38	X39	Y39	Z39	X40	Y40	Z40	X41	Y41	Z41	X42	Y42	Z42	X43	Y43	Z43	X44	Y44	Z44	X45	Y45	Z45	X46	Y46	Z46	X47	Y47	Z47	X48	Y48	Z48	X49	Y49	Z49	X50	Y50	Z50	X51	Y51	Z51	X52	Y52	Z52	X53	Y53	Z53	

263	2.62	-506.2524719238281	985.9966430664062	350.8080139160156	-441.7325439453125	983.9443969726562	233.5538482666016	-465.9710998535156	1084.564819335938	285.2222900390625	-257.5942077636719	1272.5224609375	388.7991943359375	-471.3505859375	1209.261108398438	277.8149719238281	-438.9485168457031	1483.2626953125	314.9322509765625	-276.505859375	1383.991333007812	382.7609558105469	-540.2041625976562	1355.830810546875	353.537841796875	-426.1886901855469	1433.218505859375	217.0371704101562	-302.6784057617188	1460.76318359375	185.9823913574219	-285.3196411132812	1335.537353515625	104.7565612792969	-279.7775573730469	1117.242309570312	74.0318603515625	-376.6260681152344	1114.38671875	103.1050491333008	-231.5848236083984	858.8966674804688	112.4602432250977	-259.6399536132812	852.0613403320312	30.07238388061523	-265.1491088867188	1029.922241210938	63.64867782592773	-276.1327819824219	696.1075439453125	88.96339416503906	-266.2349548339844	791.1163940429688	31.80804824829102	-227.8995208740234	780.2171630859375	87.15309143066406	-459.7771301269531	1440.69287109375	477.5576477050781	-508.3443908691406	1375.364868164062	526.4548950195312	-536.4741821289062	1086.657958984375	562.9971923828125	-571.3399658203125	1071.932373046875	510.5221862792969	-423.2232971191406	853.2357177734375	599.056884765625	-499.0144653320312	843.56640625	630.4429931640625	-536.080322265625	1032.140258789062	574.0756225585938	-447.0011596679688	684.158935546875	602.38671875	-494.531005859375	769.85498046875	642.0086669921875	-385.7236022949219	1663.58203125	426.3531799316406	-257.186767578125	1672.084594726562	483.5711669921875	-303.4751586914062	1665.932495117188	282.8102416992188	-270.9177551269531	902.0494384765625	177.156982421875	-444.277099609375	931.789306640625	522.035400390625	-343.4478149414062	965.3770141601562	502.5361633300781	-222.6381988525391	931.4371948242188	256.5518188476562	-279.2898254394531	452.8115234375	222.8940734863281	-260.2684326171875	623.1156005859375	206.0807647705078	-638.694091796875	173.6638641357422	42.39555740356445	-473.76416015625	313.3744201660156	121.2087326049805	-544.6742553710938	31.58313941955566	162.4831695556641	-603.4486083984375	79.24268341064453	167.2723388671875	-566.5757446289062	81.55792236328125	69.49600982666016	-697.036865234375	229.5584564208984	70.93906402587891	-283.356201171875	512.7314453125	553.8189086914062	-373.5598449707031	790.0358276367188	556.9124145507812	-336.2475891113281	35.38462066650391	541.6571044921875	-264.7640380859375	365.3609313964844	554.843994140625	-112.1700820922852	42.18241119384766	559.1217651367188	-162.7163696289062	42.58895492553711	502.8847351074219	-213.9280242919922	38.66862487792969	594.4234008789062	-373.6781005859375	27.55826950073242	472.8222351074219	-421.5662231445312	760.136962890625	630.5098876953125	-191.1111145019531	1675.807006835938	355.0014343261719	
264	2.63	-499.8980102539062	987.9615478515625	357.4613037109375	-437.0778503417969	985.4779052734375	239.3447113037109	-459.9676513671875	1086.281005859375	291.6616516113281	-250.1493988037109	1273.850219726562	392.6260681152344	-465.3251037597656	1210.912109375	284.3504333496094	-432.2607727050781	1484.852783203125	321.1739501953125	-268.9473571777344	1385.345825195312	386.8421630859375	-533.01025390625	1357.500610351562	361.02587890625	-420.733154296875	1434.850952148438	223.09912109375	-297.6146545410156	1462.356811523438	190.5796813964844	-281.4417114257812	1337.379272460938	108.7813339233398	-276.4622192382812	1119.249633789062	77.21002960205078	-372.9316101074219	1116.317504882812	107.491828918457	-227.4328460693359	860.8661499023438	114.7852325439453	-256.556396484375	854.0955200195312	32.69850540161133	-261.913818359375	1031.975463867188	66.48865509033203	-273.0041198730469	698.1724853515625	91.87872314453125	-263.3746643066406	793.151123046875	34.61606216430664	-224.3394622802734	782.1237182617188	89.44098663330078	-451.0597229003906	1442.266235351562	483.9607543945312	-499.1492919921875	1377.071655273438	533.5162353515625	-527.0253295898438	1088.41259765625	570.7888793945312	-562.5592041015625	1073.635009765625	518.9490966796875	-412.4502868652344	855.435546875	605.6217651367188	-487.6888122558594	845.437744140625	638.0423583984375	-526.2890625	1033.827514648438	581.9609985351562	-434.9933166503906	686.3456420898438	609.399658203125	-482.60009765625	771.7150268554688	649.5308227539062	-377.6909790039062	1664.974243164062	431.9171752929688	-248.4572601318359	1673.543579101562	487.4314270019531	-297.3255920410156	1667.361694335938	287.3508911132812	-266.9071655273438	903.1932983398438	181.2377014160156	-436.124267578125	933.1840209960938	527.8816528320312	-335.356689453125	966.3289184570312	507.1351928710938	-217.3484954833984	932.9747314453125	259.6037902832031	-264.6158142089844	453.8680725097656	229.25146484375	-249.8882904052734	624.4655151367188	211.0359954833984	-630.78955078125	181.9430694580078	52.63601303100586	-461.9828491210938	317.7423706054688	130.1568298339844	-534.3289794921875	33.36912155151367	165.2907867431641	-592.1035766601562	83.31404876708984	173.7683410644531	-559.1295166015625	88.13558197021484	74.71119689941406	-687.5573120117188	237.5093536376953	84.18018341064453	-279.3460693359375	512.1863403320312	555.7045288085938	-366.3260192871094	790.5830688476562	561.2554931640625	-336.1642761230469	35.52914047241211	541.6229858398438	-262.1388854980469	364.7474365234375	555.885986328125	-112.1141510009766	42.00211715698242	558.9363403320312	-162.5196533203125	42.31757354736328	502.6061401367188	-213.8346862792969	38.74076461791992	594.264892578125	-373.6936340332031	27.58040618896484	472.8196105957031	-409.8509826660156	762.4442749023438	637.1155395507812	-184.0264129638672	1677.31298828125	358.0611877441406	
265	2.64	-493.639892578125	989.8084716796875	363.8977966308594	-432.5894470214844	986.9192504882812	244.8940887451172	-454.1471862792969	1087.975341796875	297.884765625	-242.7810668945312	1275.0517578125	396.2395935058594	-459.4197387695312	1212.552124023438	290.7698059082031	-425.55419921875	1486.418701171875	327.3802185058594	-261.4018859863281	1386.577758789062	390.7618103027344	-525.8048095703125	1359.180786132812	368.5178527832031	-415.3690795898438	1436.457763671875	229.1070861816406	-292.645751953125	1463.859985351562	195.058349609375	-277.7186889648438	1339.122924804688	112.7069931030273	-273.2468566894531	1121.161865234375	80.29953765869141	-369.3236083984375	1118.083984375	111.7966995239258	-223.0177917480469	862.8973388671875	117.1779861450195	-253.2538452148438	856.0300903320312	35.4285888671875	-258.6923522949219	1033.941284179688	69.28079223632812	-268.9307556152344	700.1957397460938	94.99608612060547	-260.0700073242188	795.0853271484375	37.58538055419922	-220.2281036376953	784.1139526367188	91.83613586425781	-442.2050170898438	1443.789184570312	490.3109130859375	-489.7951965332031	1378.732421875	540.559814453125	-517.4740600585938	1090.135864257812	578.5505981445312	-553.6580810546875	1075.261962890625	527.4336547851562	-401.4841613769531	857.6334228515625	612.0801391601562	-476.1153869628906	847.2993774414062	645.5941772460938	-516.3473510742188	1035.466918945312	589.8261108398438	-422.6318359375	688.52001953125	616.461669921875	-470.3702697753906	773.585205078125	657.0536499023438	-369.5823669433594	1666.287475585938	437.3581237792969	-239.6640625	1674.914794921875	491.1342163085938	-291.0870361328125	1668.678833007812	291.7781982421875	-262.991943359375	904.365478515625	184.9778900146484	-428.0327758789062	934.4625244140625	533.4645385742188	-327.3392028808594	967.181396484375	511.40576171875	-212.2122497558594	934.5032958984375	262.3760375976562	-250.0442199707031	455.2715148925781	235.4927520751953	-239.5858764648438	626.018310546875	215.7878723144531	-622.1530151367188	189.1054077148438	63.58652114868164	-449.9825744628906	321.8620300292969	139.2835845947266	-522.0860595703125	35.95332717895508	168.9377288818359	-579.2081909179688	87.14175415039062	180.9948425292969	-550.2481079101562	94.45542144775391	80.78515625	-677.6730346679688	243.9364929199219	98.00674438476562	-275.4631958007812	511.6193237304688	557.4818115234375	-359.1264343261719	791.0443725585938	565.3760375976562	-336.0559692382812	35.68619918823242	541.570068359375	-259.5817260742188	364.1319274902344	556.8502807617188	-112.0280990600586	41.84628295898438	558.8114624023438	-162.3194122314453	42.07527160644531	502.3533935546875	-213.7430114746094	38.79985809326172	594.1249389648438	-373.6903991699219	27.63088226318359	472.8045043945312	-397.8599243164062	764.7966918945312	643.6878051757812	-176.8782653808594	1678.717041015625	360.9931030273438	
266	2.65	-487.4579162597656	991.5198364257812	370.0975646972656	-428.2138061523438	988.2547607421875	250.1919097900391	-448.4859008789062	1089.649047851562	303.8974609375	-235.49072265625	1276.143188476562	399.6480407714844	-453.6099548339844	1214.185180664062	297.0708618164062	-418.8265686035156	1487.96142578125	333.5465698242188	-253.8887481689453	1387.70166015625	394.5211181640625	-518.6021728515625	1360.873901367188	376.01123046875	-410.0908508300781	1438.040283203125	235.0673370361328	-287.7744445800781	1465.2880859375	199.4180755615234	-274.1499633789062	1340.78125	116.545539855957	-270.1323852539062	1122.985107421875	83.32968139648438	-365.8025817871094	1119.702758789062	116.0444717407227	-218.3677062988281	864.9993286132812	119.6269149780273	-249.7582550048828	857.8748168945312	38.26078414916992	-255.4916381835938	1035.827026367188	72.04879760742188	-263.9128112792969	702.1744995117188	98.288330078125	-256.3295288085938	796.9297485351562	40.69100189208984	-215.5948181152344	786.1945190429688	94.32218933105469	-433.2159729003906	1445.261840820312	496.6089782714844	-480.2731018066406	1380.345336914062	547.5776977539062	-507.8026428222656	1091.831665039062	586.2975463867188	-544.6187133789062	1076.799926757812	535.9653930664062	-390.32373046875	859.8260498046875	618.4290161132812	-464.3036499023438	849.14453125	653.0879516601562	-506.2412414550781	1037.066284179688	597.6741333007812	-409.9620666503906	690.6724853515625	623.5219116210938	-457.86572265625	775.4586791992188	664.553466796875	-361.3827514648438	1667.531005859375	442.6862487792969	-230.8009338378906	1676.190185546875	494.6869812011719	-284.7608337402344	1669.8974609375	296.0971374511719	-259.0871276855469	905.5928344726562	188.4029998779297	-420.03955078125	935.618408203125	538.7667236328125	-319.4217834472656	967.9609375	515.3866577148438	-207.2194976806641	936.0281982421875	264.9412231445312	-235.6227264404297	457.0379638671875	241.5923919677734	-229.3728790283203	627.78955078125	220.3497009277344	-612.7118530273438	194.9534149169922	75.14194488525391	-437.796630859375	325.6344604492188	148.5578765869141	-508.12255859375	39.10604858398438	173.6176605224609	-564.964599609375	90.56947326660156	188.9843444824219	-539.90966796875	100.2487716674805	87.79285430908203	-667.3284301757812	248.7224578857422	112.2606430053711	-271.7280883789062	511.0338134765625	559.17236328125	-352.0029602050781	791.437744140625	569.2656860351562	-335.9185180664062	35.8522834777832	541.4924926757812	-257.1141357421875	363.5144958496094	557.7552490234375	-111.8995208740234	41.68899917602539	558.73583984375	-162.1083679199219	41.85694885253906	502.1241760253906	-213.649169921875	38.84830474853516	594.0032348632812	-373.6613464355469	27.71408271789551	472.7685241699219	-385.6068420410156	767.1786499023438	650.2053833007812	-169.6685028076172	1680.011352539062	363.8015747070312	
